HIERARCHY
ROOT Hips
{
	OFFSET -0.001795 -0.223333 0.028219
	CHANNELS 6 Xposition Yposition Zposition Zrotation Yrotation Xrotation 
	JOINT LeftUpLeg
	{
		OFFSET 0.069520 -0.091406 -0.006815
		CHANNELS 3 Zrotation Yrotation Xrotation
		JOINT LeftLeg
		{
			OFFSET 0.034277 -0.375199 -0.004496
			CHANNELS 3 Zrotation Yrotation Xrotation
			JOINT LeftFoot
			{
				OFFSET -0.013596 -0.397961 -0.043693
				CHANNELS 3 Zrotation Yrotation Xrotation
				JOINT LeftToe
				{
					OFFSET 0.026358 -0.055791 0.119288
					CHANNELS 3 Zrotation Yrotation Xrotation
					End Site
					{
						OFFSET 0.000000 0.000000 0.000000
					}
				}
			}
		}
	}
	JOINT RightUpLeg
	{
		OFFSET -0.067670 -0.090522 -0.004320
		CHANNELS 3 Zrotation Yrotation Xrotation
		JOINT RightLeg
		{
			OFFSET -0.038290 -0.382569 -0.008850
			CHANNELS 3 Zrotation Yrotation Xrotation
			JOINT RightFoot
			{
				OFFSET 0.015774 -0.398415 -0.042312
				CHANNELS 3 Zrotation Yrotation Xrotation
				JOINT RightToe
				{
					OFFSET -0.025372 -0.048144 0.123348
					CHANNELS 3 Zrotation Yrotation Xrotation
					End Site
					{
						OFFSET 0.000000 0.000000 0.000000
					}
				}
			}
		}
	}
	JOINT Spine
	{
		OFFSET -0.002533 0.108963 -0.026696
		CHANNELS 3 Zrotation Yrotation Xrotation
		JOINT Spine1
		{
			OFFSET 0.005487 0.135180 0.001092
			CHANNELS 3 Zrotation Yrotation Xrotation
			JOINT Spine2
			{
				OFFSET 0.001457 0.052922 0.025425
				CHANNELS 3 Zrotation Yrotation Xrotation
				JOINT Neck
				{
					OFFSET -0.002778 0.213870 -0.042857
					CHANNELS 3 Zrotation Yrotation Xrotation
					JOINT Head
					{
						OFFSET 0.005152 0.064970 0.051349
						CHANNELS 3 Zrotation Yrotation Xrotation
						End Site
						{
							OFFSET 0.000000 0.000000 0.000000
						}
					}
				}
				JOINT LeftShoulder
				{
					OFFSET 0.078845 0.121749 -0.034090
					CHANNELS 3 Zrotation Yrotation Xrotation
					JOINT LeftArm
					{
						OFFSET 0.090977 0.030469 -0.008868
						CHANNELS 3 Zrotation Yrotation Xrotation
						JOINT LeftForeArm
						{
							OFFSET 0.259612 -0.012772 -0.027456
							CHANNELS 3 Zrotation Yrotation Xrotation
							JOINT LeftHand
							{
								OFFSET 0.249234 0.008986 -0.001171
								CHANNELS 3 Zrotation Yrotation Xrotation
								End Site
								{
									OFFSET 0.000000 0.000000 0.000000
								}
							}
						}
					}
				}
				JOINT RightShoulder
				{
					OFFSET -0.081759 0.118833 -0.038615
					CHANNELS 3 Zrotation Yrotation Xrotation
					JOINT RightArm
					{
						OFFSET -0.096012 0.032551 -0.009143
						CHANNELS 3 Zrotation Yrotation Xrotation
						JOINT RightForeArm
						{
							OFFSET -0.253742 -0.013329 -0.021401
							CHANNELS 3 Zrotation Yrotation Xrotation
							JOINT RightHand
							{
								OFFSET -0.255298 0.007772 -0.005559
								CHANNELS 3 Zrotation Yrotation Xrotation
								End Site
								{
									OFFSET 0.000000 0.000000 0.000000
								}
							}
						}
					}
				}
			}
		}
	}
}
MOTION
Frames: 14
Frame Time: 0.050000
0.276675 0.952475 0.303773 20.460530 -11.338729 -7.154690 25.245816 11.765969 -50.120057 -6.750259 24.043963 143.008981 -10.796228 -8.572379 19.047025 0.000000 0.000000 0.000000 -13.064363 1.063210 6.331550 7.352587 -0.443979 20.774985 -15.376098 -34.218472 -7.548283 0.000000 0.000000 0.000000 6.290019 -1.244432 22.726791 -12.958295 3.078336 -38.276383 -3.453170 24.867607 25.016156 8.498240 -1.200086 -20.822613 0.000000 0.000000 0.000000 -7.138360 -3.409267 -0.660933 -34.668177 4.127554 -6.189498 -153.658341 -73.608170 141.677818 0.000000 0.000000 0.000000 6.004671 -6.525083 -2.129447 -8.725658 37.875568 -3.646375 -110.783311 58.896663 -69.784728 0.000000 0.000000 0.000000 
0.259225 0.939794 0.310458 17.060262 -13.158322 -5.624927 15.634967 7.565352 -54.348124 -19.665913 42.952195 118.783668 4.342585 11.876860 7.769464 0.000000 0.000000 0.000000 -6.092193 0.259462 5.087624 3.994045 0.570207 21.675092 -16.433232 -35.616170 -6.141812 0.000000 0.000000 0.000000 4.596983 -0.935373 23.156912 -10.378468 2.693740 -41.549237 -2.536189 28.380479 28.414815 10.781331 -1.720468 -23.517653 0.000000 0.000000 0.000000 -8.230249 -5.134722 -0.537219 -35.011215 2.471974 -5.879629 -152.810479 -76.166875 141.098599 0.000000 0.000000 0.000000 3.619606 -4.496877 -1.453856 -15.084553 36.318416 -4.215290 -109.003197 50.507736 -58.671607 0.000000 0.000000 0.000000 
0.235555 0.926877 0.325807 13.413140 -14.484490 -5.144960 8.731450 4.137539 -56.124295 -24.370641 34.035663 90.193027 10.477866 21.173825 2.071039 0.000000 0.000000 0.000000 -1.542874 -0.296226 7.261027 4.689179 0.445807 21.629658 -16.207293 -34.248443 -3.757749 0.000000 0.000000 0.000000 2.953099 -0.604987 24.082575 -9.029015 2.577859 -43.721801 -2.088151 31.406127 29.547026 13.043631 -2.005781 -27.144914 0.000000 0.000000 0.000000 -8.289523 -5.798765 -0.633416 -35.396884 0.957182 -5.522809 -128.031585 -77.363975 111.585276 0.000000 0.000000 0.000000 -0.045224 -4.330976 -2.005620 -17.096477 38.038405 -4.327943 -107.440179 43.386996 -47.501304 0.000000 0.000000 0.000000 
0.206344 0.908881 0.349751 10.138944 -19.150929 -3.542405 4.614103 2.981582 -54.706689 -20.146906 20.841818 65.040888 10.704680 20.380668 10.913254 0.000000 0.000000 0.000000 2.631486 -0.814514 8.821352 3.716870 0.901473 21.286468 -13.851656 -28.193496 -4.999874 0.000000 0.000000 0.000000 2.163663 -0.317054 22.401039 -8.240516 2.606639 -42.427547 -1.742551 35.766957 29.019491 17.703767 -4.306682 -28.620721 0.000000 0.000000 0.000000 -6.865086 -5.183895 -0.753841 -39.632673 -0.473460 -5.981561 -111.502185 -79.516236 95.074671 0.000000 0.000000 0.000000 -3.851080 -1.964136 -1.903468 -19.429662 38.719826 -4.333943 -108.089978 41.185937 -44.338408 0.000000 0.000000 0.000000 
0.172155 0.888817 0.379931 7.786456 -21.699646 -3.005595 0.630626 0.815069 -49.079069 -14.725918 10.849477 43.230851 8.434571 16.004337 19.647619 0.000000 0.000000 0.000000 6.046313 -1.392248 11.482419 2.115315 1.564226 22.629486 -12.028965 -23.615072 -5.194760 0.000000 0.000000 0.000000 1.547081 -0.138043 21.852946 -8.667489 2.715051 -42.545320 -1.190840 36.899400 29.876815 17.778685 -4.223923 -29.342004 0.000000 0.000000 0.000000 -7.607882 -5.132798 -0.959743 -42.103418 -0.834341 -6.415286 -98.467709 -80.859431 83.792804 0.000000 0.000000 0.000000 -5.902181 -2.639326 -2.581797 -19.019148 41.352552 -4.547260 -112.943065 38.170004 -43.527832 0.000000 0.000000 0.000000 
0.133601 0.866448 0.414413 5.086126 -23.428968 -2.487863 -2.020106 -0.513572 -44.289790 -12.774734 6.247323 26.819799 7.073611 13.516409 23.359720 0.000000 0.000000 0.000000 9.584778 -1.983021 13.428775 2.475217 2.018648 26.197853 -9.793435 -18.941985 -4.381667 0.000000 0.000000 0.000000 -0.184590 0.165935 20.656224 -9.186132 2.517527 -37.694473 -3.408580 34.794229 25.639137 19.763239 -6.464047 -27.487786 0.000000 0.000000 0.000000 -7.833409 -4.591199 -0.850146 -43.869939 -0.948143 -6.548473 -95.698487 -82.751232 84.407708 0.000000 0.000000 0.000000 -4.209605 -0.048177 -1.103366 -20.431625 43.407754 -5.980006 -117.949089 38.770074 -49.767684 0.000000 0.000000 0.000000 
0.092687 0.845616 0.453312 2.355597 -24.132133 -2.887004 -2.478461 -0.955873 -39.214939 -11.443721 4.622045 20.233069 8.016044 14.393652 20.815249 0.000000 0.000000 0.000000 11.188084 -2.471309 16.717900 4.845100 1.971036 31.195138 -5.195547 -10.812442 -0.701005 0.000000 0.000000 0.000000 -2.233802 0.580977 20.852639 -8.926987 2.385524 -36.395126 -3.171879 34.031201 25.308874 21.306757 -7.539099 -27.914907 0.000000 0.000000 0.000000 -8.785991 -6.243192 -0.261095 -44.601796 -1.935858 -6.274646 -104.760153 -84.697724 96.253152 0.000000 0.000000 0.000000 -1.705039 -0.478020 -0.736574 -11.818610 46.642429 -4.788442 -125.389902 46.464446 -66.623276 0.000000 0.000000 0.000000 
0.052965 0.832489 0.493498 0.499167 -24.105922 -4.995937 -1.976355 -1.024526 -35.069169 -12.105210 4.987950 20.258540 12.318268 20.859207 14.721139 0.000000 0.000000 0.000000 11.196980 -2.137455 13.618683 11.566603 1.034983 43.954537 -2.978775 -10.375650 8.123164 0.000000 0.000000 0.000000 -5.045459 1.351737 23.009365 -6.477592 1.874706 -34.946499 -4.163039 33.681362 26.111761 22.250445 -7.347555 -30.746927 0.000000 0.000000 0.000000 -9.655024 -5.633722 -0.727019 -44.233717 -4.353078 -5.329551 -106.796992 -84.269178 97.866520 0.000000 0.000000 0.000000 3.182988 0.053371 0.304632 -8.031391 48.061171 -4.331323 -134.520156 54.513527 -88.798180 0.000000 0.000000 0.000000 
0.016200 0.825267 0.533462 -0.146230 -24.832084 -5.967768 -0.353752 -0.441696 -34.402428 -11.419670 5.647884 24.742817 11.725349 21.775149 4.808879 0.000000 0.000000 0.000000 9.070102 -1.394803 8.851122 16.156829 0.043663 53.739881 -7.121041 -17.049215 4.180568 0.000000 0.000000 0.000000 -6.222072 1.860626 24.781476 -6.850219 1.896953 -35.007505 -3.216647 32.308912 26.399816 19.911971 -6.157324 -30.554890 0.000000 0.000000 0.000000 -7.436008 -4.223833 -0.538663 -45.745662 -5.206133 -5.575431 -122.606850 -80.535657 111.420299 0.000000 0.000000 0.000000 6.867643 2.227655 1.865743 -0.692766 49.742336 -2.600757 -145.596747 65.285730 -115.771653 0.000000 0.000000 0.000000 
-0.016640 0.826422 0.575561 -1.533483 -24.087088 -4.930823 0.665828 -0.291911 -32.711593 -12.047227 6.256235 26.464712 10.481531 21.798245 -4.915207 0.000000 0.000000 0.000000 8.651334 -1.065410 5.911222 15.043400 0.392901 52.305342 -10.798930 -22.451454 -13.474792 0.000000 0.000000 0.000000 -4.339590 1.368829 25.191226 -7.073356 2.068506 -38.033325 -3.059063 32.282142 30.374303 20.826122 -6.801298 -30.768632 0.000000 0.000000 0.000000 -5.983980 -3.404291 -0.499461 -47.199892 -5.676519 -6.158244 -133.639723 -79.086500 122.656377 0.000000 0.000000 0.000000 10.667454 3.630176 3.398015 0.399387 49.670332 -2.787204 -145.109396 69.263452 -119.255252 0.000000 0.000000 0.000000 
-0.048985 0.827712 0.622913 -0.852280 -27.494628 -5.708018 3.419552 1.122617 -32.950785 -14.397481 8.409676 28.526940 10.080255 20.556744 -3.879123 0.000000 0.000000 0.000000 6.259451 -1.072118 8.491376 9.864911 2.962619 46.693486 -10.601906 -17.651209 -19.262697 0.000000 0.000000 0.000000 -4.228217 1.463816 24.466010 -7.879466 2.288607 -38.837957 -0.241189 36.943406 30.045377 18.874229 -5.402037 -29.310088 0.000000 0.000000 0.000000 -6.039767 -5.206560 -0.113683 -46.390930 -2.653192 -6.935093 -149.742952 -77.425111 138.306124 0.000000 0.000000 0.000000 12.616328 4.548187 4.600876 -5.001398 52.865324 -4.872540 -109.676430 69.184895 -79.176893 0.000000 0.000000 0.000000 
-0.081760 0.830861 0.673543 -0.236819 -25.643685 -5.623282 3.852208 1.421417 -35.983940 -15.501377 9.724065 32.608719 4.754401 9.352471 -1.336708 0.000000 0.000000 0.000000 6.793632 -1.577609 14.849092 5.742189 2.992531 38.923630 -10.150640 -18.020913 -11.911739 0.000000 0.000000 0.000000 -4.835070 1.059637 20.514323 -10.623470 2.603407 -36.291843 2.551070 36.554415 28.301420 22.335169 -9.419103 -23.959379 0.000000 0.000000 0.000000 -7.971470 -5.520878 -0.575441 -42.696942 0.095032 -6.560855 -162.678153 -76.388750 152.911831 0.000000 0.000000 0.000000 8.494613 8.712519 5.461138 -7.213540 48.216391 -4.655514 -94.405462 59.224906 -54.340515 0.000000 0.000000 0.000000 
-0.115885 0.842667 0.726454 0.816119 -25.427725 -5.711218 4.548169 1.821293 -37.088821 -16.099499 9.340836 30.508604 -1.325810 0.008148 9.426711 0.000000 0.000000 0.000000 5.760470 -1.585636 21.241391 2.403564 3.070827 32.858010 -2.547267 -6.028950 0.807803 0.000000 0.000000 0.000000 -5.964379 1.083334 18.536561 -12.327136 2.851086 -35.969759 5.622269 38.020319 28.331794 22.878986 -11.071506 -20.111761 0.000000 0.000000 0.000000 -9.293476 -4.507538 -1.630790 -40.230350 3.389202 -6.761182 -167.785163 -76.959861 158.671820 0.000000 0.000000 0.000000 4.590521 6.839261 3.614226 -9.346153 48.279930 -4.715119 -90.003581 51.390979 -42.550765 0.000000 0.000000 0.000000 
-0.151737 0.859186 0.781407 -0.062747 -25.753769 -4.266793 3.299140 1.206970 -36.098702 -17.151971 8.257931 24.473501 0.538905 4.911067 21.096443 0.000000 0.000000 0.000000 3.786736 -1.163866 21.232326 4.643011 3.096917 37.961031 6.680659 2.503897 15.728123 0.000000 0.000000 0.000000 -6.186094 0.948872 16.557758 -9.144985 2.416870 -39.265998 9.455520 41.354479 35.124769 22.880265 -10.284547 -20.978657 0.000000 0.000000 0.000000 -9.692084 -2.009888 -3.482876 -40.316900 5.185488 -7.417791 -174.523720 -77.526992 165.740827 0.000000 0.000000 0.000000 0.549839 5.464578 1.887339 -10.285351 48.878144 -4.216484 -96.678269 46.101276 -40.516733 0.000000 0.000000 0.000000 
